<?xml version="1.0" encoding="UTF-8" standalone="no"?>
<!-- Created with Inkscape (http://www.inkscape.org/) -->

<svg
   width="360mm"
   height="360mm"
   viewBox="0 0 360 360"
   version="1.1"
   id="svg1"
   inkscape:version="1.4.2 (f4327f4, 2025-05-13)"
   sodipodi:docname="settings.svg"
   xmlns:inkscape="http://www.inkscape.org/namespaces/inkscape"
   xmlns:sodipodi="http://sodipodi.sourceforge.net/DTD/sodipodi-0.dtd"
   xmlns="http://www.w3.org/2000/svg"
   xmlns:svg="http://www.w3.org/2000/svg">
  <sodipodi:namedview
     id="namedview1"
     pagecolor="#ffffff"
     bordercolor="#000000"
     borderopacity="0.25"
     inkscape:showpageshadow="2"
     inkscape:pageopacity="0.0"
     inkscape:pagecheckerboard="0"
     inkscape:deskcolor="#d1d1d1"
     inkscape:document-units="mm"
     showgrid="true"
     inkscape:zoom="0.48693448"
     inkscape:cx="903.61234"
     inkscape:cy="728.02403"
     inkscape:window-width="1920"
     inkscape:window-height="991"
     inkscape:window-x="-9"
     inkscape:window-y="-9"
     inkscape:window-maximized="1"
     inkscape:current-layer="layer1">
    <sodipodi:guide
       position="0,360.00001"
       orientation="0,1360.6299"
       id="guide1"
       inkscape:locked="false" />
    <sodipodi:guide
       position="360,180.00001"
       orientation="1360.6299,0"
       id="guide2"
       inkscape:locked="false" />
    <sodipodi:guide
       position="360.00001,0"
       orientation="0,-1360.6299"
       id="guide3"
       inkscape:locked="false" />
    <sodipodi:guide
       position="0,0"
       orientation="-1360.6299,0"
       id="guide4"
       inkscape:locked="false" />
    <inkscape:grid
       id="grid4"
       units="mm"
       originx="0"
       originy="0"
       spacingx="1"
       spacingy="1"
       empcolor="#0099e5"
       empopacity="0.30196078"
       color="#0099e5"
       opacity="0.14901961"
       empspacing="5"
       enabled="true"
       visible="true" />
  </sodipodi:namedview>
  <defs
     id="defs1">
    <inkscape:path-effect
       effect="fillet_chamfer"
       id="path-effect1"
       is_visible="true"
       lpeversion="1"
       nodesatellites_param="F,0,0,1,0,9.9999989,0,1 @ F,0,0,1,0,9.9999952,0,1 @ F,0,0,1,0,10.000009,0,1 @ F,0,0,1,0,10.000009,0,1"
       radius="0"
       unit="px"
       method="auto"
       mode="F"
       chamfer_steps="1"
       flexible="false"
       use_knot_distance="true"
       apply_no_radius="true"
       apply_with_radius="true"
       only_selected="false"
       hide_knots="false" />
    <inkscape:path-effect
       effect="fillet_chamfer"
       id="path-effect1-4"
       is_visible="true"
       lpeversion="1"
       nodesatellites_param="F,0,0,1,0,9.9999989,0,1 @ F,0,0,1,0,9.9999952,0,1 @ F,0,0,1,0,10.000009,0,1 @ F,0,0,1,0,10.000009,0,1"
       radius="0"
       unit="px"
       method="auto"
       mode="F"
       chamfer_steps="1"
       flexible="false"
       use_knot_distance="true"
       apply_no_radius="true"
       apply_with_radius="true"
       only_selected="false"
       hide_knots="false" />
    <inkscape:path-effect
       effect="fillet_chamfer"
       id="path-effect1-5"
       is_visible="true"
       lpeversion="1"
       nodesatellites_param="F,0,0,1,0,9.9999989,0,1 @ F,0,0,1,0,9.9999952,0,1 @ F,0,0,1,0,10.000009,0,1 @ F,0,0,1,0,10.000009,0,1"
       radius="0"
       unit="px"
       method="auto"
       mode="F"
       chamfer_steps="1"
       flexible="false"
       use_knot_distance="true"
       apply_no_radius="true"
       apply_with_radius="true"
       only_selected="false"
       hide_knots="false" />
    <inkscape:path-effect
       effect="fillet_chamfer"
       id="path-effect1-5-2"
       is_visible="true"
       lpeversion="1"
       nodesatellites_param="F,0,0,1,0,9.9999989,0,1 @ F,0,0,1,0,9.9999952,0,1 @ F,0,0,1,0,10.000009,0,1 @ F,0,0,1,0,10.000009,0,1"
       radius="0"
       unit="px"
       method="auto"
       mode="F"
       chamfer_steps="1"
       flexible="false"
       use_knot_distance="true"
       apply_no_radius="true"
       apply_with_radius="true"
       only_selected="false"
       hide_knots="false" />
    <inkscape:path-effect
       effect="fillet_chamfer"
       id="path-effect1-5-3"
       is_visible="true"
       lpeversion="1"
       nodesatellites_param="F,0,0,1,0,9.9999989,0,1 @ F,0,0,1,0,9.9999952,0,1 @ F,0,0,1,0,10.000009,0,1 @ F,0,0,1,0,10.000009,0,1"
       radius="0"
       unit="px"
       method="auto"
       mode="F"
       chamfer_steps="1"
       flexible="false"
       use_knot_distance="true"
       apply_no_radius="true"
       apply_with_radius="true"
       only_selected="false"
       hide_knots="false" />
  </defs>
  <g
     inkscape:label="Layer 1"
     inkscape:groupmode="layer"
     id="layer1">
    <rect
       style="fill:#000000;stroke-width:0.304842"
       id="rect4"
       width="360"
       height="80"
       x="-390"
       y="54.999996" />
    <rect
       style="fill:#c8c8c8;fill-opacity:1;stroke-width:0.215556"
       id="rect4-8"
       width="360"
       height="40"
       x="-395"
       y="220" />
    <rect
       style="fill:#999999;fill-opacity:1;stroke-width:0.0508071"
       id="rect4-8-1"
       width="20"
       height="40"
       x="-150.51221"
       y="156.19644" />
    <path
       d="m 285.8301,150.00015 a 110,110 0 0 1 4.16977,29.99972 110,110 0 0 1 -4.16977,30.00023 h 43.50329 a 10.666677,15.000012 0 0 0 10.66653,-15.00012 v -30.00023 a 10.666662,14.999992 0 0 0 -10.66653,-14.9996 z"
       style="fill:#1a1a1a;stroke-width:0.291003"
       id="path33" />
    <path
       d="M 74.17015,210.0001 A 110,110 0 0 1 69.999862,179.99987 110,110 0 0 1 74.17015,150.00015 H 30.666862 a 10.666666,14.999997 0 0 0 -10.667049,14.9996 v 30.00023 a 10.666677,15.000012 0 0 0 10.667049,15.00012 z"
       style="fill:#1a1a1a;stroke-width:0.291003"
       id="path16" />
    <path
       d="m 233.61985,276.0462 30.76143,30.76143 a 10.666666,14.999997 45 0 0 18.14928,-3.0639 l 21.21317,-21.21317 a 10.666677,15.000012 45 0 0 3.0639,-18.14928 L 276.0462,233.61985 a 110,110 0 0 1 -42.42635,42.42635 z"
       style="fill:#1a1a1a;stroke-width:0.291003"
       id="path26" />
    <path
       d="M 83.953532,126.37988 A 110,110 0 0 1 126.37988,83.953532 L 95.618453,53.192102 A 10.666677,15.000012 45 0 0 77.46969,56.256514 L 56.256514,77.46969 a 10.666662,14.999992 45 0 0 -3.064412,18.148763 z"
       style="fill:#1a1a1a;stroke-width:0.291003"
       id="path19" />
    <path
       d="M 276.0462,126.37988 306.80763,95.618453 A 14.999997,10.666666 45 0 0 303.74373,77.46969 L 282.53056,56.256514 a 15.000012,10.666677 45 0 0 -18.14928,-3.064412 l -30.76143,30.76143 a 110,110 0 0 1 42.42635,42.426348 z"
       style="fill:#1a1a1a;stroke-width:0.291003"
       id="path32" />
    <path
       d="M 126.37988,276.0462 A 110,110 0 0 1 83.953532,233.61985 l -30.76143,30.76143 a 15.000012,10.666677 45 0 0 3.064412,18.14928 l 21.213176,21.21317 a 14.999992,10.666662 45 0 0 18.148763,3.0639 z"
       style="fill:#1a1a1a;stroke-width:0.291003"
       id="path13" />
    <path
       d="m 210.0001,285.8301 a 110,110 0 0 1 -30.00023,4.16977 110,110 0 0 1 -29.99972,-4.16977 v 43.50329 a 14.999997,10.666666 0 0 0 14.9996,10.66653 h 30.00023 a 15.000012,10.666677 0 0 0 15.00012,-10.66653 z"
       style="fill:#1a1a1a;stroke-width:0.291003"
       id="path11" />
    <path
       d="m 164.99975,19.999813 a 14.999992,10.666662 0 0 0 -14.9996,10.667049 V 74.17015 a 110,110 0 0 1 29.99972,-4.170288 110,110 0 0 1 30.00023,4.170288 V 30.666862 A 15.000012,10.666677 0 0 0 194.99998,19.999813 Z"
       style="fill:#1a1a1a;stroke-width:0.291003"
       id="path2" />
    <path
       d="m 252.42594,150.00015 h 33.40416 a 110,110 0 0 0 -9.7839,-23.62027 z"
       style="fill:#1a1a1a;stroke-width:0.298505"
       id="path31" />
    <path
       d="m 237.9555,164.47058 14.47044,-14.47043 h -20.46439 a 60,60 0 0 1 5.99395,14.47043 z"
       style="fill:#1a1a1a;stroke-width:0.298505"
       id="path30" />
    <path
       d="m 252.42645,210.0001 h 33.40365 a 110,110 0 0 0 4.16977,-30.00023 110,110 0 0 0 -4.16977,-29.99972 h -33.40416 l -14.47044,14.47043 a 60,60 0 0 1 2.04432,15.52929 60,60 0 0 1 -2.04432,15.52928 z"
       style="fill:#1a1a1a;stroke-width:0.298505"
       id="path29" />
    <path
       d="M 252.42645,210.0001 237.9555,195.52915 a 60,60 0 0 1 -5.99395,14.47095 z"
       style="fill:#1a1a1a;stroke-width:0.298505"
       id="path28" />
    <path
       d="m 276.0462,233.61985 a 110,110 0 0 0 9.7839,-23.61975 h -33.40365 z"
       style="fill:#1a1a1a;stroke-width:0.298505"
       id="path27" />
    <path
       d="m 122.04423,164.47058 a 60,60 0 0 1 5.99447,-14.47043 h -20.4649 z"
       style="fill:#1a1a1a;stroke-width:0.298505"
       id="path25" />
    <path
       d="m 164.47058,237.9555 a 60,60 0 0 1 -14.47043,-5.99395 v 20.46439 z"
       style="fill:#1a1a1a;stroke-width:0.298505"
       id="path24" />
    <path
       d="m 122.04423,195.52915 -14.47095,14.47095 h 20.46542 a 60,60 0 0 1 -5.99447,-14.47095 z"
       style="fill:#1a1a1a;stroke-width:0.298505"
       id="path23" />
    <path
       d="m 150.00015,107.5738 v 20.4649 a 60,60 0 0 1 14.47043,-5.99447 z"
       style="fill:#1a1a1a;stroke-width:0.298505"
       id="path22" />
    <path
       d="M 126.37988,83.953532 150.00015,107.5738 V 74.17015 a 110,110 0 0 0 -23.62027,9.783382 z"
       style="fill:#1a1a1a;stroke-width:0.298505"
       id="path21" />
    <path
       d="m 83.953532,126.37988 23.620268,23.62027 h 20.4649 A 60,60 0 0 1 150.00015,128.0387 V 107.5738 L 126.37988,83.953532 A 110,110 0 0 0 83.953532,126.37988 Z"
       style="fill:#1a1a1a;stroke-width:0.298505"
       id="path20" />
    <path
       d="M 74.17015,150.00015 H 107.5738 L 83.953532,126.37988 a 110,110 0 0 0 -9.783382,23.62027 z"
       style="fill:#1a1a1a;stroke-width:0.298505"
       id="path18" />
    <path
       d="m 74.17015,210.0001 h 33.40313 l 14.47095,-14.47095 a 60,60 0 0 1 -2.04432,-15.52928 60,60 0 0 1 2.04432,-15.52929 L 107.5738,150.00015 H 74.17015 a 110,110 0 0 0 -4.170288,29.99972 110,110 0 0 0 4.170288,30.00023 z"
       style="fill:#1a1a1a;stroke-width:0.298505"
       id="path17" />
    <path
       d="M 83.953532,233.61985 107.57328,210.0001 H 74.17015 a 110,110 0 0 0 9.783382,23.61975 z"
       style="fill:#1a1a1a;stroke-width:0.298505"
       id="path15" />
    <path
       d="m 126.37988,276.0462 23.62027,-23.62026 V 231.96155 A 60,60 0 0 1 128.0387,210.0001 h -20.46542 l -23.619748,23.61975 a 110,110 0 0 0 42.426348,42.42635 z"
       style="fill:#1a1a1a;stroke-width:0.298505"
       id="path14" />
    <path
       d="m 150.00015,285.8301 v -33.40416 l -23.62027,23.62026 a 110,110 0 0 0 23.62027,9.7839 z"
       style="fill:#1a1a1a;stroke-width:0.298505"
       id="path12" />
    <path
       d="M 210.0001,252.42645 195.52915,237.9555 a 60,60 0 0 1 -15.52928,2.04432 60,60 0 0 1 -15.52929,-2.04432 l -14.47043,14.47044 v 33.40416 a 110,110 0 0 0 29.99972,4.16977 110,110 0 0 0 30.00023,-4.16977 z"
       style="fill:#1a1a1a;stroke-width:0.298505"
       id="path10" />
    <path
       d="m 210.0001,252.42645 v 33.40365 a 110,110 0 0 0 23.61975,-9.7839 z"
       style="fill:#1a1a1a;stroke-width:0.298505"
       id="path9" />
    <path
       d="m 210.0001,231.96155 a 60,60 0 0 1 -14.47095,5.99395 l 14.47095,14.47095 z"
       style="fill:#1a1a1a;stroke-width:0.298505"
       id="path8" />
    <path
       d="m 210.0001,231.96155 v 20.4649 l 23.61975,23.61975 A 110,110 0 0 0 276.0462,233.61985 L 252.42645,210.0001 h -20.4649 a 60,60 0 0 1 -21.96145,21.96145 z"
       style="fill:#1a1a1a;stroke-width:0.298505"
       id="path7" />
    <path
       d="m 210.0001,107.57328 -14.47095,14.47095 a 60,60 0 0 1 14.47095,5.99447 z"
       style="fill:#1a1a1a;stroke-width:0.298505"
       id="path6" />
    <path
       d="m 210.0001,107.57328 v 20.46542 a 60,60 0 0 1 21.96145,21.96145 h 20.46439 L 276.0462,126.37988 A 110,110 0 0 0 233.61985,83.953532 Z"
       style="fill:#1a1a1a;stroke-width:0.298505"
       id="path5" />
    <path
       d="m 210.0001,74.17015 a 110,110 0 0 0 -30.00023,-4.170288 110,110 0 0 0 -29.99972,4.170288 v 33.40365 l 14.47043,14.47043 a 60,60 0 0 1 15.52929,-2.04432 60,60 0 0 1 15.52928,2.04432 l 14.47095,-14.47095 z"
       style="fill:#1a1a1a;stroke-width:0.298505"
       id="path4" />
    <path
       d="m 210.0001,74.17015 v 33.40313 L 233.61985,83.953532 A 110,110 0 0 0 210.0001,74.17015 Z"
       style="fill:#1a1a1a;stroke-width:0.298505"
       id="path3" />
  </g>
</svg>
