<?xml version="1.0" encoding="UTF-8" standalone="no"?>
<!-- Created with Inkscape (http://www.inkscape.org/) -->

<svg
   width="360mm"
   height="360mm"
   viewBox="0 0 360 360"
   version="1.1"
   id="svg1"
   inkscape:version="1.4.2 (f4327f4, 2025-05-13)"
   sodipodi:docname="reset_arrow.svg"
   xmlns:inkscape="http://www.inkscape.org/namespaces/inkscape"
   xmlns:sodipodi="http://sodipodi.sourceforge.net/DTD/sodipodi-0.dtd"
   xmlns="http://www.w3.org/2000/svg"
   xmlns:svg="http://www.w3.org/2000/svg">
  <sodipodi:namedview
     id="namedview1"
     pagecolor="#ffffff"
     bordercolor="#000000"
     borderopacity="0.25"
     inkscape:showpageshadow="2"
     inkscape:pageopacity="0.0"
     inkscape:pagecheckerboard="0"
     inkscape:deskcolor="#d1d1d1"
     inkscape:document-units="mm"
     showgrid="true"
     inkscape:zoom="0.34431467"
     inkscape:cx="900.33921"
     inkscape:cy="599.74209"
     inkscape:window-width="1920"
     inkscape:window-height="991"
     inkscape:window-x="-9"
     inkscape:window-y="-9"
     inkscape:window-maximized="1"
     inkscape:current-layer="layer1">
    <sodipodi:guide
       position="0,360.00001"
       orientation="0,1360.6299"
       id="guide1"
       inkscape:locked="false" />
    <sodipodi:guide
       position="360,180.00001"
       orientation="1360.6299,0"
       id="guide2"
       inkscape:locked="false" />
    <sodipodi:guide
       position="360.00001,0"
       orientation="0,-1360.6299"
       id="guide3"
       inkscape:locked="false" />
    <sodipodi:guide
       position="0,0"
       orientation="-1360.6299,0"
       id="guide4"
       inkscape:locked="false" />
    <inkscape:grid
       id="grid4"
       units="mm"
       originx="0"
       originy="0"
       spacingx="1"
       spacingy="1"
       empcolor="#0099e5"
       empopacity="0.30196078"
       color="#0099e5"
       opacity="0.14901961"
       empspacing="5"
       enabled="true"
       visible="true" />
  </sodipodi:namedview>
  <defs
     id="defs1" />
  <g
     inkscape:label="Layer 1"
     inkscape:groupmode="layer"
     id="layer1">
    <rect
       style="fill:#000000;stroke-width:0.304842"
       id="rect4"
       width="360"
       height="80"
       x="-390"
       y="54.999996" />
    <rect
       style="fill:#c8c8c8;fill-opacity:1;stroke-width:0.215556"
       id="rect4-8"
       width="360"
       height="40"
       x="-395"
       y="220" />
    <rect
       style="fill:#999999;fill-opacity:1;stroke-width:0.0508071"
       id="rect4-8-1"
       width="20"
       height="40"
       x="-150.51221"
       y="156.19644" />
    <path
       d="M 79.675757,75.309615 93.952922,89.330981 A 125,125 0 0 1 179.99987,54.999744 125,125 0 0 1 304.99999,179.99987 125,125 0 0 1 179.99987,304.99999 125,125 0 0 1 55.382666,189.77601 L 35.338928,170.09194 A 145,145 0 0 0 34.999931,179.99987 145,145 0 0 0 179.99987,324.9998 145,145 0 0 0 324.9998,179.99987 145,145 0 0 0 179.99987,34.999931 145,145 0 0 0 79.675757,75.309615 Z"
       style="stroke-width:0.213135"
       id="path8" />
    <g
       id="g3"
       transform="matrix(0.70142621,0.70233683,-0.70142621,0.70233683,48.507129,4.8924358)">
      <rect
         style="fill:#000000;stroke-width:0.264583"
         id="rect2"
         width="70"
         height="19.999989"
         x="105"
         y="110"
         rx="10"
         ry="10" />
      <rect
         style="fill:#000000;stroke-width:0.264583"
         id="rect3"
         width="20"
         height="70"
         x="104.99999"
         y="109.99999"
         rx="10"
         ry="10" />
    </g>
    <circle
       style="fill:#000000;stroke-width:0.211667"
       id="path9"
       cx="86.828506"
       cy="82.305267"
       r="10" />
  </g>
</svg>
