<?xml version="1.0" encoding="UTF-8" standalone="no"?>
<!-- Created with Inkscape (http://www.inkscape.org/) -->

<svg
   width="210mm"
   height="297mm"
   viewBox="0 0 210 297"
   version="1.1"
   id="svg1"
   inkscape:version="1.4.2 (f4327f4, 2025-05-13)"
   sodipodi:docname="tndrdgfnf.svg"
   xmlns:inkscape="http://www.inkscape.org/namespaces/inkscape"
   xmlns:sodipodi="http://sodipodi.sourceforge.net/DTD/sodipodi-0.dtd"
   xmlns="http://www.w3.org/2000/svg"
   xmlns:svg="http://www.w3.org/2000/svg">
  <sodipodi:namedview
     id="namedview1"
     pagecolor="#ffffff"
     bordercolor="#000000"
     borderopacity="0.25"
     inkscape:showpageshadow="2"
     inkscape:pageopacity="0.0"
     inkscape:pagecheckerboard="0"
     inkscape:deskcolor="#d1d1d1"
     inkscape:document-units="mm"
     inkscape:zoom="0.68862935"
     inkscape:cx="679.61088"
     inkscape:cy="590.30304"
     inkscape:window-width="1920"
     inkscape:window-height="991"
     inkscape:window-x="-9"
     inkscape:window-y="-9"
     inkscape:window-maximized="1"
     inkscape:current-layer="layer1" />
  <defs
     id="defs1">
    <inkscape:path-effect
       effect="spiro"
       id="path-effect7"
       is_visible="true"
       lpeversion="1" />
    <inkscape:path-effect
       effect="spiro"
       id="path-effect6"
       is_visible="true"
       lpeversion="1" />
    <inkscape:path-effect
       effect="spiro"
       id="path-effect5"
       is_visible="true"
       lpeversion="1" />
    <inkscape:path-effect
       effect="spiro"
       id="path-effect4"
       is_visible="true"
       lpeversion="1" />
    <inkscape:path-effect
       effect="spiro"
       id="path-effect3"
       is_visible="true"
       lpeversion="1" />
    <rect
       x="103.10336"
       y="101.6512"
       width="531.49056"
       height="592.48129"
       id="rect2" />
    <rect
       x="185.87648"
       y="178.61568"
       width="409.50912"
       height="264.29312"
       id="rect1" />
    <rect
       x="103.10336"
       y="101.6512"
       width="531.49054"
       height="592.48126"
       id="rect2-9" />
    <rect
       x="103.10336"
       y="101.6512"
       width="531.49054"
       height="592.48126"
       id="rect2-9-6" />
  </defs>
  <g
     inkscape:label="Layer 1"
     inkscape:groupmode="layer"
     id="layer1">
    <text
       xml:space="preserve"
       transform="scale(0.26458333)"
       id="text1"
       style="fill:#808000;text-orientation:auto;text-align:center;writing-mode:lr-tb;direction:ltr;white-space:pre;shape-inside:url(#rect1);-inkscape-font-specification:'Comic Sans MS';font-family:'Comic Sans MS';font-weight:normal;font-style:normal;font-stretch:normal;font-variant:normal;font-size:32.0000004px" />
    <text
       xml:space="preserve"
       transform="matrix(0.26458333,0,0,0.26458333,6.915912,1.152652)"
       id="text2"
       style="font-style:normal;font-variant:normal;font-weight:normal;font-stretch:normal;font-size:32px;line-height:1.3;font-family:'Comic Sans MS';-inkscape-font-specification:'Comic Sans MS';text-align:center;writing-mode:lr-tb;direction:ltr;white-space:pre;shape-inside:url(#rect2);fill:#1a1a1a"><tspan
         x="229.33301"
         y="130.2542"
         id="tspan1">the days are weird
</tspan><tspan
         x="168.47363"
         y="171.85421"
         id="tspan3">plants look absolutely dead
</tspan><tspan
         x="209.5752"
         y="213.45422"
         id="tspan4">the weather is insane
</tspan><tspan
         x="186.27051"
         y="255.05422"
         id="tspan5">people get more grouchy
</tspan><tspan
         x="159.17676"
         y="296.65423"
         id="tspan6">theres weird noises at night
</tspan><tspan
         x="197.8252"
         y="338.25424"
         id="tspan7">its so busy everywhere
</tspan><tspan
         x="216.73145"
         y="379.85424"
         id="tspan8">and thats why i hate
</tspan></text>
    <text
       xml:space="preserve"
       transform="matrix(0.26458333,0,0,0.26458333,-29.278766,93.909862)"
       id="text2-5"
       style="font-style:normal;font-variant:normal;font-weight:normal;font-stretch:normal;font-size:32px;line-height:1.3;font-family:'Comic Sans MS';-inkscape-font-specification:'Comic Sans MS';text-align:center;writing-mode:lr-tb;direction:ltr;white-space:pre;shape-inside:url(#rect2-9);fill:#1a1a1a"><tspan
         x="311.42676"
         y="130.2542"
         id="tspan9">summer</tspan></text>
    <text
       xml:space="preserve"
       transform="matrix(0.26458333,0,0,0.26458333,44.259029,92.281608)"
       id="text2-5-9"
       style="font-style:normal;font-variant:normal;font-weight:normal;font-stretch:normal;font-size:32px;line-height:1.3;font-family:'Comic Sans MS';-inkscape-font-specification:'Comic Sans MS';text-align:center;writing-mode:lr-tb;direction:ltr;white-space:pre;shape-inside:url(#rect2-9-6);fill:#1a1a1a"><tspan
         x="321.05176"
         y="130.2542"
         id="tspan10">winter</tspan></text>
    <path
       d="m 131.24574,18.727022 c -0.9621,-0.03022 -2.01005,0.09095 -2.91714,0.09095 h -9.22114 -9.22114 c -1.25636,0 -2.60271,-0.162184 -3.84215,0 -1.69072,0.221234 -3.31708,0.48427 -4.99504,0.703833 -0.63393,0.08295 -1.292887,-0.115031 -1.920814,0 -1.312511,0.240443 -2.587152,0.768248 -3.842659,1.055749 -1.853681,0.424477 -3.88487,0.35978 -5.762956,0.703833 -1.017228,0.186349 -2.019728,0.862668 -3.073714,1.05575 -1.854692,0.33977 -3.904032,0.01128 -5.763473,0.351916 -1.634884,0.2995 -3.366194,0.757449 -4.994527,1.05575 -1.734942,0.317829 -3.648167,0.307488 -5.379,0.703833 -0.555657,0.127241 -0.975221,0.600945 -1.536857,0.703833 -1.530602,0.280399 -3.103222,0.0066 -4.611088,0.351916 -1.294072,0.296332 -2.399927,1.113681 -3.45767,1.759583 -0.77043,0.470459 -1.834302,0.663965 -2.689758,1.055749 -0.928347,0.425165 -1.677679,1.098815 -2.689242,1.407666 -0.121499,0.0371 -0.2564,0 -0.384472,0 l -1.152385,0.351917 c -0.324001,0.148385 -0.444427,0.555447 -0.768428,0.703833 -0.505282,0.231409 -1.775458,0.893982 -2.305286,1.055749 -0.243001,0.0742 -0.539327,-0.104924 -0.768429,0 -0.324001,0.148385 -0.467023,0.5203 -0.768428,0.70435 -0.761653,0.465099 -2.311536,0.709539 -3.073714,1.407666 -1.499496,1.373489 0.08868,0.188965 -0.384473,1.05575 -0.243001,0.445159 -0.826364,0.657587 -1.152384,1.055749 -0.505976,0.617942 -0.684682,1.468192 -1.152902,2.111499 -0.200935,0.276078 -0.653876,0.389058 -0.768428,0.703833 -0.081,0.222581 0.06213,0.476218 0,0.703833 -0.395001,1.447236 -1.798037,2.477221 -2.305286,3.871082 -0.490775,1.348603 -1.037689,2.499932 -1.536857,3.871598 -0.121499,0.333869 0.07535,0.710655 0,1.05575 -0.194381,0.89023 -0.876807,1.706159 -1.152384,2.463415 -0.49086,1.348833 0,10.230266 0,11.965678 v 8.445996 c 0,1.024235 -0.274576,2.513672 0,3.519682 0.06946,0.254481 0.255884,0.469213 0.383956,0.703833 0.128071,0.11731 0.327192,0.194531 0.384472,0.351917 0.348997,0.959002 0.117669,2.191611 0.383956,3.167248 0.371613,1.36154 2.194837,4.909222 3.073714,5.982581 0.217347,0.265443 0.582057,0.419315 0.768429,0.703833 0.578276,0.882802 0.820826,2.255257 1.152901,3.167765 0.464299,1.275847 0.182292,0.250428 0.768429,1.055749 0.472882,0.649716 0.679502,1.461784 1.152384,2.111499 0.438605,0.602621 1.098252,1.156962 1.536857,1.759583 0.567606,0.77986 0.88255,1.744231 1.536857,2.463415 0.463806,0.509794 1.073053,0.897877 1.536857,1.407667 0.73189,0.804464 0.992147,1.754165 1.92133,2.463416 1.156787,0.88298 2.310788,1.32413 3.45767,2.11201 1.286322,0.88368 2.471577,2.01645 3.842143,2.81534 0.581866,0.33916 1.329925,0.37881 1.92133,0.70383 1.689917,0.92874 3.186965,2.16689 4.729943,3.32951 -0.226653,0.0317 -0.453951,0.063 -0.683679,0.092 -0.232945,0.0293 -0.475161,-0.0407 -0.7059,0 -0.482298,0.0851 -0.950449,0.27188 -1.4118,0.37362 -0.681157,0.15017 -1.427576,0.12733 -2.1177,0.24908 -0.373793,0.066 -0.742347,0.30532 -1.129647,0.37362 -0.681528,0.12054 -1.434426,0.004 -2.1177,0.12454 -0.600757,0.10599 -1.237197,0.26806 -1.835547,0.37362 -0.637525,0.11247 -1.340609,0.10883 -1.976624,0.24908 -0.204183,0.045 -0.357927,0.21268 -0.564306,0.24908 -0.562438,0.0992 -1.140387,0.002 -1.69447,0.12454 -0.475522,0.10487 -0.882044,0.39413 -1.270724,0.6227 -0.283104,0.16648 -0.673705,0.23498 -0.988053,0.37362 -0.341132,0.15046 -0.616859,0.38887 -0.98857,0.49816 -0.04465,0.0131 -0.09402,0 -0.141077,0 -0.141185,0.0415 -0.282562,0.083 -0.423747,0.12454 -0.119058,0.0525 -0.163095,0.19658 -0.282153,0.24908 -0.185672,0.0819 -0.652286,0.31642 -0.846977,0.37362 -0.08929,0.0263 -0.19848,-0.0371 -0.28267,0 -0.119058,0.0525 -0.171398,0.18398 -0.282153,0.24908 -0.279878,0.16459 -0.849576,0.2506 -1.129647,0.49765 -0.184633,0.16286 -0.241368,0.225 -0.242363,0.24598 1.4e-5,3.2e-4 2.2e-5,0.001 0,0.002 v 5.1e-4 5.2e-4 5.2e-4 l 5.17e-4,5.2e-4 v 5.1e-4 l 5.17e-4,5.2e-4 5.17e-4,5.2e-4 5.17e-4,5.1e-4 c 0.02588,0.019 0.206187,-0.0667 0.09922,0.12196 -0.08929,0.15753 -0.303946,0.23272 -0.423746,0.37362 -0.185927,0.21867 -0.251177,0.51959 -0.42323,0.74724 -0.07384,0.0977 -0.240581,0.13769 -0.282671,0.24908 -0.02976,0.0788 0.02283,0.16848 0,0.24908 -0.145148,0.51214 -0.660582,0.8767 -0.846976,1.36994 -0.180341,0.47723 -0.381399,0.88455 -0.564824,1.36995 -0.04465,0.11814 0.02769,0.2515 0,0.37362 -0.07143,0.31503 -0.321966,0.60381 -0.42323,0.87178 -0.180373,0.47731 0,3.62025 0,4.23436 v 2.98897 c 0,0.36245 -0.100897,0.88941 0,1.2454 0.02552,0.0901 0.09402,0.16608 0.141077,0.24908 0.04707,0.0415 0.120027,0.0688 0.141077,0.12454 0.128245,0.33936 0.04323,0.77561 0.141076,1.12086 0.136554,0.48181 0.806693,1.73736 1.129647,2.11719 0.07987,0.0939 0.213663,0.14839 0.282153,0.24908 0.212494,0.31239 0.301723,0.79795 0.423747,1.12086 0.170613,0.45152 0.06677,0.0886 0.282154,0.37362 0.173766,0.22991 0.24998,0.51733 0.423746,0.74724 0.161171,0.21325 0.403653,0.40945 0.564824,0.6227 0.208574,0.27597 0.32439,0.61728 0.564823,0.87178 0.170431,0.1804 0.393876,0.31776 0.564307,0.49816 0.268941,0.28467 0.364977,0.62029 0.706417,0.87127 0.425075,0.31246 0.848771,0.46843 1.270206,0.74724 0.472675,0.3127 0.908686,0.71362 1.412317,0.99632 0.213814,0.12002 0.488581,0.13407 0.7059,0.24908 1.468358,0.77713 2.540003,2.16698 4.376477,2.36627 0.379835,0.28719 0.682189,0.67443 1.129647,0.87178 0.26794,0.11817 4.188623,0 4.800224,0 1.534125,0 2.873612,-0.0281 4.376477,-0.24908 0.336136,-0.0494 0.839209,0.1281 1.129647,0 0.05954,-0.0262 0.07794,-0.10594 0.141076,-0.12454 0.439495,-0.12922 1.227559,0 1.694471,0 h 4.376477 c 0.515993,0 1.18953,0.11135 1.69447,0 0.617119,-0.13609 1.203913,-0.51126 1.835547,-0.6227 0.138445,-0.0244 0.283966,0.0205 0.42323,0 0.4263,-0.0627 0.854628,-0.26875 1.270723,-0.37362 0.186575,-0.047 0.376577,-0.083 0.564824,-0.12454 0.09412,0 0.190833,0.0201 0.282153,0 0.481095,-0.1061 0.906213,-0.40897 1.4118,-0.49817 0.401708,-0.0706 0.256976,0.027 0.257349,0.0537 v 5.1e-4 5.2e-4 l 5.16e-4,5.2e-4 v 5.1e-4 5.2e-4 l 5.17e-4,5.2e-4 5.17e-4,5.2e-4 5.17e-4,5.1e-4 c 0.01691,0.0112 0.131404,-0.0213 0.588078,-0.18242 0.319963,-0.1129 0.644227,-0.37685 0.988053,-0.49816 0.276357,-0.0975 0.580758,-0.13167 0.846977,-0.24908 0.119058,-0.0525 0.156388,-0.21198 0.28267,-0.24908 0.08929,-0.0263 0.197963,0.0371 0.282153,0 0.196956,-0.0869 0.96439,-0.54459 1.270724,-0.74724 0.188247,-0.12454 0.398436,-0.22685 0.564823,-0.37362 0.132367,-0.11676 0.235893,-0.38769 0.423747,-0.49816 0.08756,-0.0514 0.207743,-0.0589 0.282153,-0.12454 0.119987,-0.10583 0.162169,-0.26778 0.282153,-0.37362 0.389785,-0.34382 0.87043,-0.64272 1.270724,-0.99581 0.614382,-0.54194 1.080784,-1.20224 1.69447,-1.74356 0.119988,-0.10584 0.30376,-0.14324 0.423747,-0.24908 0.02957,-0.0261 0.820006,-1.42308 0.846976,-1.49448 0.02976,-0.0788 -0.04209,-0.17478 0,-0.24908 0.18771,-0.33115 0.389059,-0.35964 0.564824,-0.74724 0.123586,-0.27254 0.04966,-0.58953 0.141077,-0.87178 0.131051,-0.4046 0.242497,-0.84686 0.42323,-1.24541 0.07816,-0.17237 0.2414,-0.31612 0.28267,-0.49816 0.299136,-1.31932 0.141076,-2.7636 0.141076,-4.10982 0,-0.97459 0.121987,-2.02054 0,-2.98897 -0.08505,-0.67521 -0.132203,-1.45583 -0.282153,-2.11718 -0.02064,-0.091 -0.124283,-0.15748 -0.141593,-0.24908 -0.03094,-0.16379 0.03366,-0.33479 0,-0.49816 -0.189934,-0.92146 -0.881841,-1.49374 -1.129131,-2.36627 -0.210872,-0.74402 -0.795951,-1.73808 -1.270723,-2.36626 4.174926,0 7.821043,-0.0795 11.910899,-0.70383 0.91475,-0.13965 2.28333,0.36199 3.07372,0 0.16201,-0.0742 0.21212,-0.29942 0.38395,-0.35192 1.19603,-0.36517 3.33993,0 4.61057,0 h 8.12922 c -0.017,0.0178 -0.0307,0.0379 -0.0393,0.0605 -0.0298,0.0788 0.0228,0.16848 0,0.24908 -0.14514,0.51214 -0.66058,0.8767 -0.84698,1.36994 -0.18034,0.47723 -0.38139,0.88403 -0.56482,1.36943 -0.0447,0.11814 0.0277,0.2515 0,0.37362 -0.0714,0.31503 -0.32197,0.60381 -0.42323,0.87178 -0.18038,0.47731 0,3.62026 0,4.23437 v 2.98896 c 0,0.36245 -0.1009,0.88941 0,1.2454 0.0255,0.0901 0.094,0.16609 0.14108,0.24909 0.0471,0.0415 0.11997,0.0688 0.14107,0.12454 0.12828,0.33936 0.0432,0.77561 0.14108,1.12086 0.13656,0.48181 0.8067,1.73735 1.12965,2.11718 0.0799,0.0939 0.21365,0.14839 0.28215,0.24908 0.2125,0.31239 0.30173,0.79795 0.42375,1.12086 0.17061,0.45152 0.0673,0.0886 0.28267,0.37362 0.17377,0.22991 0.24946,0.51733 0.42323,0.74724 0.16117,0.21325 0.40365,0.40946 0.56482,0.62271 0.20857,0.27597 0.32438,0.61728 0.56482,0.87178 0.17043,0.1804 0.3944,0.31776 0.56483,0.49816 0.26894,0.28467 0.36446,0.6208 0.7059,0.87178 0.42508,0.31246 0.84929,0.46843 1.27072,0.74724 0.47268,0.3127 0.90817,0.71362 1.4118,0.99632 0.21382,0.12002 0.48858,0.13407 0.7059,0.24908 1.46836,0.77713 2.54001,2.16646 4.37648,2.36575 0.37983,0.28719 0.68218,0.67443 1.12964,0.87178 0.26794,0.11817 4.18863,0 4.80023,0 1.53412,0 2.87413,-0.0281 4.37699,-0.24908 0.33614,-0.0494 0.83869,0.1281 1.12913,0 0.0596,-0.0262 0.078,-0.10594 0.14108,-0.12454 0.4395,-0.12922 1.22755,0 1.69447,0 h 4.37699 c 0.51599,0 1.18902,0.11135 1.69396,0 0.61712,-0.13609 1.2039,-0.51126 1.83554,-0.6227 0.13844,-0.0244 0.28397,0.0205 0.42323,0 0.4263,-0.0627 0.85463,-0.26823 1.27073,-0.3731 0.18657,-0.047 0.37657,-0.083 0.56482,-0.12454 0.0941,0 0.19137,0.0201 0.28267,0 0.48109,-0.1061 0.90621,-0.40897 1.4118,-0.49817 0.40171,-0.0706 0.25646,0.0265 0.25683,0.0532 v 5.2e-4 l 5.2e-4,5.1e-4 v 5.2e-4 5.2e-4 l 5.1e-4,5.2e-4 v 5.1e-4 l 5.2e-4,5.2e-4 5.2e-4,5.2e-4 c 0.0169,0.0112 0.1314,-0.0208 0.58808,-0.18191 0.31997,-0.1129 0.64422,-0.37685 0.98805,-0.49816 0.27635,-0.0975 0.58127,-0.13167 0.84749,-0.24908 0.11906,-0.0525 0.15588,-0.21198 0.28216,-0.24908 0.0893,-0.0263 0.19795,0.0371 0.28215,0 0.19695,-0.0869 0.96438,-0.54459 1.27072,-0.74724 0.18824,-0.12454 0.39844,-0.22685 0.56483,-0.37362 0.13236,-0.11676 0.23589,-0.38769 0.42374,-0.49816 0.0876,-0.0514 0.20776,-0.0589 0.28216,-0.12454 0.11999,-0.10583 0.16269,-0.26778 0.28267,-0.37362 0.38979,-0.34382 0.87043,-0.64323 1.27072,-0.99632 0.61438,-0.54194 1.08026,-1.20225 1.69395,-1.74357 0.11999,-0.10584 0.30376,-0.14324 0.42375,-0.24908 0.0296,-0.0261 0.81998,-1.42308 0.84698,-1.49448 0.0298,-0.0788 -0.0421,-0.17478 0,-0.24908 0.18771,-0.33115 0.38906,-0.35964 0.56482,-0.74724 0.12359,-0.27254 0.0497,-0.58953 0.14108,-0.87178 0.13105,-0.4046 0.24301,-0.84685 0.42374,-1.2454 0.0782,-0.17237 0.24086,-0.31612 0.28216,-0.49816 0.29914,-1.31932 0.14107,-2.76361 0.14107,-4.10983 0,-0.97459 0.12198,-2.02054 0,-2.98897 -0.0851,-0.67521 -0.1322,-1.45583 -0.28215,-2.11718 -0.0206,-0.091 -0.12378,-0.15748 -0.14108,-0.24908 -0.0309,-0.16379 0.0337,-0.33479 0,-0.49816 -0.18993,-0.92146 -0.88235,-1.49322 -1.12964,-2.36575 -0.21087,-0.74402 -0.79596,-1.73808 -1.27073,-2.36626 -0.20609,-0.27268 -0.68074,-0.69107 -0.98805,-0.87178 -0.0392,-0.023 -0.10829,0.0293 -0.14159,0 -0.0744,-0.0656 -0.0754,-0.17658 -0.14108,-0.24908 -0.56004,-0.6175 -1.44488,-1.40651 -2.1177,-1.86811 -0.11748,-0.0806 -0.29613,-0.057 -0.42375,-0.12454 -0.22828,-0.12082 -0.32618,-0.39314 -0.5643,-0.49816 -0.0842,-0.0371 -0.19337,0.0263 -0.28267,0 -0.16097,-0.0473 -0.1677,-0.32418 -0.42323,-0.24908 -0.0913,-0.0201 -0.19847,0.0371 -0.28267,0 -0.34924,-0.15404 -0.70698,-0.5481 -1.12965,-0.6227 -0.55076,-0.0971 -0.43676,-0.003 -0.38861,0.0279 -0.0439,-0.0234 -0.19409,-0.0982 -0.59944,-0.27699 -0.34688,-0.10203 -0.74733,-0.0121 -1.12965,-0.12454 -0.19967,-0.0587 -0.36064,-0.20408 -0.56482,-0.24908 -0.96929,-0.21375 -1.87135,-0.34272 -2.8236,-0.6227 -0.19966,-0.0587 -0.35845,-0.21268 -0.56483,-0.24908 -0.43102,-0.076 -0.96737,0 -1.4118,0 0.324,-0.1484 0.42477,-0.5989 0.76843,-0.70383 0.243,-0.0742 0.53933,0.10493 0.76843,0 0.53599,-0.24547 2.62454,-1.53882 3.45819,-2.1115 0.51229,-0.35194 1.08405,-0.64099 1.53685,-1.05575 0.36022,-0.32994 0.64117,-1.0955 1.15239,-1.40767 0.23828,-0.14551 0.56594,-0.16694 0.76843,-0.35243 0.32653,-0.29907 0.4419,-0.75667 0.76842,-1.05575 1.06075,-0.971611 2.36884,-1.817536 3.45819,-2.815333 1.67196,-1.53146 2.9405,-3.397105 4.61057,-4.926831 0.32653,-0.299083 0.82637,-0.40475 1.1529,-0.703833 0.0805,-0.07372 2.23189,-4.021852 2.30529,-4.223515 0.081,-0.222581 -0.11455,-0.493983 0,-0.703833 0.51083,-0.935805 1.05854,-1.016186 1.53686,-2.111499 0.33632,-0.770176 0.13516,-1.665825 0.38395,-2.463415 0.35664,-1.143366 0.66106,-2.392889 1.1529,-3.519165 0.21271,-0.487102 0.65611,-0.893227 0.76843,-1.407666 0.81406,-3.728242 0.38396,-7.809498 0.38396,-11.613762 0,-2.75408 0.33197,-5.709832 0,-8.446513 -0.23146,-1.908092 -0.36036,-4.11366 -0.76843,-5.98258 -0.0562,-0.25722 -0.33686,-0.445089 -0.38396,-0.703833 -0.0842,-0.462855 0.0916,-0.945996 0,-1.407666 -0.51688,-2.603953 -2.40074,-4.221261 -3.07371,-6.686931 -0.57386,-2.102526 -2.16616,-4.911241 -3.45819,-6.686413 -0.56084,-0.770573 -1.85292,-1.952727 -2.68924,-2.463416 -0.10656,-0.06507 -0.29387,0.08295 -0.38447,0 -0.20249,-0.185483 -0.20506,-0.499003 -0.38396,-0.703833 -1.52407,-1.744992 -3.93247,-3.97483 -5.76347,-5.279264 -0.31969,-0.227751 -0.80562,-0.161057 -1.1529,-0.351917 -0.62125,-0.341422 -0.88886,-1.110892 -1.53686,-1.407666 -0.22911,-0.104924 -0.52543,0.0742 -0.76843,0 -0.43807,-0.133753 -0.45697,-0.915951 -1.15238,-0.703833 -0.2485,-0.0569 -0.53932,0.104925 -0.76843,0 -0.95042,-0.435281 -1.92345,-1.548863 -3.07371,-1.759582 -1.49957,-0.27471 -1.18926,-0.0065 -1.05834,0.07958 -0.11933,-0.06606 -0.52772,-0.277942 -1.63142,-0.783415 -0.94398,-0.288229 -2.03329,-0.03425 -3.07372,-0.351917 -0.54337,-0.165901 -0.9812,-0.576592 -1.53685,-0.703833 -2.6378,-0.604034 -5.09288,-0.968368 -7.68429,-1.759582 -0.54336,-0.165901 -0.97522,-0.600946 -1.53686,-0.703833 -0.29324,-0.05372 -0.60431,-0.08088 -0.925,-0.09095 z"
       style="fill:none;stroke:#000000;stroke-width:1.365"
       id="path3" />
    <path
       style="fill:none;stroke:#000000;stroke-width:1.365;stroke-dasharray:none;stroke-opacity:1"
       d="m 52.637774,145.61837 c -1.078929,0.50221 -2.267872,0.76642 -3.457956,0.76843 -1.155952,0.002 -2.326829,-0.23829 -3.457956,0 -0.789608,0.16634 -1.513368,0.55816 -2.191998,0.99475 -0.67863,0.43659 -1.326362,0.92347 -2.034393,1.31056 -1.107352,0.60541 -2.338581,0.95399 -3.457955,1.53687 -0.411869,0.21447 -0.810081,0.46217 -1.150636,0.77785 -0.340556,0.31568 -0.62265,0.70302 -0.770451,1.14323 -0.14377,0.42821 -0.156297,0.88977 -0.125425,1.34042 0.03087,0.45064 0.103634,0.89792 0.125425,1.3491 0.02472,0.51178 -0.01633,1.02475 0,1.53687 0.0248,0.7779 0.194694,1.57764 0.659214,2.20211 0.23226,0.31223 0.536465,0.57435 0.890702,0.73544 0.354237,0.16109 0.759118,0.21783 1.139605,0.13619 0.06431,-0.0138 0.128125,-0.0315 0.193682,-0.0368 0.06556,-0.005 0.134353,0.003 0.190536,0.0368 0.03278,0.02 0.06032,0.0485 0.07912,0.0819 0.0188,0.0335 0.02884,0.0718 0.02884,0.11018 0,0.0384 -0.01004,0.0767 -0.02884,0.11018 -0.0188,0.0335 -0.04633,0.062 -0.07912,0.0819 0.271309,0.24036 0.528078,0.49712 0.768434,0.76843 0.37885,0.42764 0.718885,0.8933 1.147592,1.27094 0.214354,0.18881 0.45082,0.35485 0.711099,0.47256 0.260279,0.1177 0.5453,0.1861 0.83083,0.17759 0.128836,-0.004 0.2567,-0.0232 0.385301,-0.0318 0.1286,-0.009 0.260033,-0.006 0.383134,0.0318 0.176378,0.0547 0.323347,0.17958 0.44271,0.3205 0.119363,0.14092 0.215657,0.29964 0.325725,0.44793 0.265997,0.35837 0.614749,0.65568 1.013136,0.85686 0.398387,0.20119 0.84597,0.30548 1.292168,0.2958 0.385957,-0.008 0.779665,-0.0996 1.152652,0 0.277532,0.0741 0.515973,0.24718 0.768434,0.38421 0.856056,0.46463 1.874601,0.51294 2.847171,0.45981 0.97257,-0.0531 1.949626,-0.19668 2.916089,-0.0756 0.791234,0.0991 1.551764,0.37334 2.341387,0.48458 0.394812,0.0556 0.798549,0.0699 1.191144,3.2e-4 0.392594,-0.0696 0.774681,-0.22621 1.078077,-0.4849 0.428621,-0.36546 0.668004,-0.89869 0.977961,-1.36901 0.154978,-0.23517 0.332098,-0.45948 0.553836,-0.63312 0.221739,-0.17364 0.492002,-0.29451 0.773507,-0.30317 0.128124,-0.004 0.256925,0.0151 0.384218,0 0.12968,-0.0154 0.25415,-0.0664 0.361321,-0.14098 0.107171,-0.0746 0.197318,-0.17242 0.268768,-0.28173 0.142898,-0.21861 0.209806,-0.47867 0.243973,-0.7376 0.03417,-0.25893 0.03785,-0.52099 0.06641,-0.7806 0.02856,-0.25961 0.08376,-0.52119 0.212183,-0.74861 0.134211,-0.23768 0.340786,-0.42526 0.550954,-0.59943 0.210168,-0.17417 0.429579,-0.34138 0.601698,-0.55323 0.229575,-0.28257 0.36455,-0.63441 0.421548,-0.99399 0.057,-0.35959 0.03898,-0.7277 -0.01371,-1.08795 -0.105384,-0.72048 -0.348056,-1.41876 -0.407841,-2.14445 -0.07372,-0.89484 0.133357,-1.80161 0,-2.68952 -0.0506,-0.3369 -0.152486,-0.67137 -0.343154,-0.95369 -0.190669,-0.28232 -0.476974,-0.50911 -0.809498,-0.58318 -0.149636,-0.0333 -0.30588,-0.0359 -0.45207,-0.082 -0.0731,-0.0231 -0.143559,-0.0574 -0.201053,-0.10813 -0.05749,-0.0507 -0.101409,-0.11867 -0.115312,-0.19405 -0.01169,-0.0634 -0.0021,-0.12847 0.0057,-0.19245 0.0077,-0.064 0.01341,-0.1302 -0.0057,-0.19177 -0.02204,-0.0712 -0.07592,-0.12953 -0.139269,-0.16878 -0.06336,-0.0393 -0.135914,-0.0611 -0.208707,-0.0771 -0.07279,-0.016 -0.146788,-0.0265 -0.218901,-0.0454 -0.07211,-0.0188 -0.143226,-0.0465 -0.201558,-0.0929 -0.05685,-0.0452 -0.09934,-0.10651 -0.130849,-0.17196 -0.03151,-0.0654 -0.05266,-0.13534 -0.07259,-0.20519 -0.01993,-0.0699 -0.03885,-0.14022 -0.06624,-0.2075 -0.02739,-0.0673 -0.06372,-0.13187 -0.114541,-0.18378 -0.09333,-0.0953 -0.229211,-0.14036 -0.362511,-0.1459 -0.133301,-0.006 -0.265458,0.0249 -0.393569,0.0621 -0.128111,0.0373 -0.254616,0.0816 -0.385935,0.10518 -0.131318,0.0236 -0.269889,0.0253 -0.394854,-0.0214 -0.110818,-0.0414 -0.205559,-0.11928 -0.279983,-0.21125 -0.07442,-0.092 -0.129734,-0.19792 -0.177237,-0.30627 -0.09501,-0.21672 -0.163302,-0.45045 -0.311215,-0.63514 -0.148799,-0.1858 -0.36925,-0.30646 -0.601001,-0.36082 -0.231751,-0.0544 -0.474683,-0.046 -0.709313,-0.006 -0.469258,0.0803 -0.910264,0.28457 -1.379207,0.36669 -0.651716,0.11413 -1.34393,-0.0209 -1.904995,-0.37154 -0.561066,-0.35066 -0.985749,-0.91372 -1.168744,-1.54954 z"
       id="path4"
       inkscape:path-effect="#path-effect4"
       inkscape:original-d="m 52.637774,145.61837 c -1.677964,-1.54295 -2.289053,0.60145 -3.457956,0.76843 -0.601541,0.0859 -2.708426,-0.29981 -3.457956,0 -1.450721,0.58029 -2.704814,1.79812 -4.226391,2.30531 -1.088498,0.36283 -2.54364,0.92732 -3.457955,1.53687 -0.384218,0.25614 -1.664941,1.53686 -1.921087,1.92108 -0.295463,0.4432 0,2.21548 0,2.68952 0,0.51229 -0.229103,1.07867 0,1.53687 0.0814,0.1628 2.521577,2.96178 2.689521,3.07374 0.106564,0.071 0.293656,-0.0906 0.384218,0 0.09056,0.0906 0,0.25615 0,0.38422 0.256145,0.25614 0.478639,0.55109 0.768434,0.76843 0.686313,0.51474 1.97035,1.68137 2.689521,1.92109 0.243002,0.081 0.525434,-0.081 0.768435,0 0.343654,0.11455 0.467029,0.5675 0.768435,0.76843 0.116329,0.0776 2.302764,1.15202 2.305304,1.15266 0.372745,0.0932 0.775896,-0.0753 1.152652,0 0.280818,0.0562 0.487616,0.32805 0.768434,0.38421 1.658816,0.33177 4.007761,0.38422 5.76326,0.38422 0.938615,0 3.945374,0.33262 4.610608,0 0.922123,-0.46106 1.383184,-1.84424 2.305304,-2.3053 0.114552,-0.0573 0.293656,0.0906 0.384218,0 0.658346,-0.65835 0.703011,-2.01506 1.152652,-2.68952 0.301405,-0.45211 0.980826,-0.63717 1.152652,-1.15266 0.373737,-1.12121 0,-3.0341 0,-4.22639 0,-0.51484 0.27491,-2.27715 0,-2.68952 -0.355209,-0.53281 -0.699847,-1.08406 -1.152652,-1.53687 -0.202499,-0.2025 -0.565934,-0.18171 -0.768435,-0.38421 -0.09056,-0.0906 0.09056,-0.29366 0,-0.38422 -0.202499,-0.2025 -0.565933,-0.18172 -0.768435,-0.38422 -0.202499,-0.2025 -0.181716,-0.56593 -0.384217,-0.76843 -0.243713,-0.24372 -1.216975,0.15994 -1.536869,0 -0.707351,-0.35368 -0.06108,-0.79898 -0.768435,-1.15266 -0.717206,-0.3586 -1.972315,0.35861 -2.689521,0 -1.080678,-0.54033 -2.024698,-1.32163 -3.073739,-1.92108 z" />
    <path
       style="fill:none;stroke:#000000;stroke-width:1.365;stroke-dasharray:none;stroke-opacity:1"
       d="m 50.33247,164.82923 v 35.348 c 0,0.76009 0.02239,1.52361 0.162374,2.27069 0.139988,0.74709 0.390712,1.46788 0.631599,2.18879 0.240887,0.7209 0.470891,1.46827 0.416918,2.22644 -0.02699,0.37908 -0.129672,0.75727 -0.333142,1.07826 -0.20347,0.32099 -0.513109,0.5815 -0.877749,0.6886 -0.249138,0.0732 -0.519297,0.0732 -0.768435,0 l -0.384216,3.84218 c -0.264768,0.31886 -0.404717,0.7387 -0.384217,1.15265 0.0064,0.12894 0.02765,0.25673 0.03667,0.38551 0.009,0.12879 0.0053,0.26084 -0.03667,0.38292 -0.03883,0.11288 -0.109466,0.21333 -0.195656,0.29592 -0.08619,0.0826 -0.187686,0.14799 -0.294117,0.20205 -0.212862,0.10813 -0.445431,0.17189 -0.662879,0.27047 -0.6324,0.28671 -1.106212,0.86193 -1.364958,1.50627 -0.258746,0.64435 -0.318226,1.35416 -0.278475,2.04738 0.0795,1.38644 0.542047,2.74292 0.490781,4.13069 -0.04829,1.30731 -0.549051,2.5525 -0.768435,3.84218 -0.225822,1.32752 -0.160492,2.68535 -0.09914,4.03054 0.06135,1.34519 0.09914,2.69143 0.09914,4.03802 v 17.28978"
       id="path5"
       inkscape:path-effect="#path-effect5"
       inkscape:original-d="m 50.33247,164.82923 c 0,11.78267 0,23.56534 0,35.348 0,0.92603 0.112509,8.34027 0,8.45278 -0.18112,0.18112 -0.512289,0 -0.768435,0 -0.128072,1.28073 -0.256144,2.56145 -0.384216,3.84218 -0.128073,0.38421 -0.30479,0.75551 -0.384217,1.15265 -0.05024,0.25117 0.153686,0.56352 0,0.76843 -0.277064,0.36942 -0.923549,0.36751 -1.152652,0.76844 -0.392583,0.68702 -1.024789,6.53358 -1.152652,7.68434 -0.144234,1.2981 -0.583726,2.54922 -0.768435,3.84218 -0.368805,2.58163 0,5.45904 0,8.06856 0,5.76326 0,11.52652 0,17.28978" />
    <path
       style="fill:none;stroke:#000000;stroke-width:1.365;stroke-dasharray:none;stroke-opacity:1"
       d="m 51.485122,207.86157 c 0.106617,2.10438 0.93121,4.16587 2.305304,5.76326 0.248118,0.28844 0.514125,0.56299 0.732691,0.87442 0.218566,0.31143 0.390191,0.66736 0.419961,1.04667 0.02543,0.32401 -0.05315,0.64576 -0.09853,0.96758 -0.02269,0.16091 -0.03714,0.32379 -0.02607,0.48591 0.01107,0.16213 0.0484,0.32407 0.124604,0.4676 0.0862,0.16236 0.221861,0.29802 0.384217,0.38422 0.200271,0.35489 0.3315,0.74857 0.384218,1.15265 0.06636,0.5086 0.0091,1.02404 0,1.53687 -0.01898,1.07163 0.186461,2.17371 0.768434,3.07374 0.251062,0.38827 0.569134,0.73544 0.768435,1.15265 0.224013,0.46894 0.284392,0.99857 0.303651,1.51791 0.01926,0.51934 8.39e-4,1.04228 0.08057,1.55583 0.124534,0.80217 0.482077,1.54571 0.768435,2.3053 0.738147,1.95801 1.011923,4.05969 1.152652,6.14748 0.155157,2.30182 0.155157,4.61409 0,6.91591"
       id="path6"
       inkscape:path-effect="#path-effect6"
       inkscape:original-d="m 51.485122,207.86157 c 1.216718,1.76659 1.151033,4.03186 2.305304,5.76326 0.397322,0.59599 0.967436,1.18022 1.152652,1.92109 0.143986,0.57595 -0.187561,1.3584 0,1.92109 0.05728,0.17183 0.256146,0.25614 0.384217,0.38422 0.128072,0.38421 0.285991,0.75974 0.384218,1.15265 0.119015,0.47606 -0.154305,1.07395 0,1.53687 0.329107,0.98732 0.457081,2.13968 0.768434,3.07374 0.13266,0.39798 0.57785,0.77148 0.768435,1.15265 0.386829,0.77365 0.09581,2.20851 0.384217,3.07374 0.252259,0.75678 0.613466,1.53046 0.768435,2.3053 0.380309,1.90155 0.55504,4.35464 1.152652,6.14748 0.491318,1.47395 0,5.1671 0,6.91591" />
    <path
       style="fill:none;stroke:#000000;stroke-width:1.365;stroke-dasharray:none;stroke-opacity:1"
       d="m 50.33247,166.75032 c -0.345265,1.28633 -1.011328,2.48524 -1.921087,3.45796 -0.247457,0.26458 -0.512202,0.51234 -0.768434,0.76843 -0.727628,0.72724 -1.391035,1.52846 -1.881445,2.4328 -0.490411,0.90433 -0.803573,1.9175 -0.808077,2.94624 -0.0017,0.38448 0.03928,0.77019 0,1.15266 -0.09246,0.90021 -0.613752,1.68921 -1.084042,2.46235 -0.235145,0.38658 -0.462062,0.78093 -0.622979,1.20382 -0.160917,0.42289 -0.2544,0.87798 -0.214065,1.32865 0.01153,0.1288 0.03386,0.25654 0.04213,0.38559 0.0083,0.12905 0.0019,0.26128 -0.04213,0.38285 -0.06375,0.17583 -0.208385,0.32046 -0.384218,0.38421 -0.376898,0.28214 -0.65296,0.69624 -0.768434,1.15266 -0.142662,0.56389 -0.04344,1.15683 0.04232,1.73213 0.08576,0.5753 0.154888,1.17862 -0.04232,1.72582 -0.09719,0.26967 -0.254963,0.51259 -0.384218,0.76844 -0.441763,0.87445 -0.541722,1.88727 -0.473932,2.86463 0.06779,0.97735 0.294118,1.93557 0.473932,2.89863 0.805695,4.3152 0.673701,8.803 -0.384217,13.06338"
       id="path7"
       inkscape:path-effect="#path-effect7"
       inkscape:original-d="m 41.111254,207.86157 c 0,-4.42199 0.384217,-8.66057 0.384217,-13.06338 0,-1.74438 -0.416573,-4.09697 0,-5.76326 0.06946,-0.27783 0.328058,-0.48762 0.384218,-0.76844 0.211926,-1.05963 -0.340426,-2.43668 0,-3.45795 0.146026,-0.43808 0.512289,-0.76844 0.768434,-1.15266 0.128072,-0.12807 0.326938,-0.21239 0.384218,-0.38421 0.081,-0.243 -0.06212,-0.51994 0,-0.76844 0.414814,-1.65925 1.582325,-3.30102 1.921086,-4.99482 0.07535,-0.37676 -0.07535,-0.7759 0,-1.15266 0.200205,-1.00102 2.008365,-4.47083 2.689522,-5.37904 0.217347,-0.28979 0.606435,-0.44443 0.768434,-0.76843 2.138077,-4.27616 -2.360496,1.89402 1.921087,-3.45796 1.152652,1.02458 2.367459,1.98324 3.457957,3.07374 0.842438,0.84244 1.237076,2.43194 1.921087,3.45796 0.878069,1.3171 2.151206,2.22723 2.689521,3.84217 0.319338,0.95801 0.459016,2.14548 0.768435,3.07374 0.08367,0.25101 0.684766,0.90165 0.768434,1.15265 0.0405,0.1215 0,0.25615 0,0.38422 0.128073,0.38422 0.203096,0.79041 0.384218,1.15265 0.244875,0.48975 0.983356,1.02898 1.152652,1.53687 0.115265,0.3458 -0.115266,0.80686 0,1.15265 0.28976,0.86928 0.889871,1.51697 1.152652,2.30531 0.170213,0.51064 -0.243919,1.43325 0,1.92108 1.045704,2.09141 0.384217,5.99933 0.384217,8.45278" />
  </g>
</svg>
